<?xml version="1.0" encoding="utf-8"?>
<!-- Generator: Adobe Illustrator 25.3.1, SVG Export Plug-In . SVG Version: 6.00 Build 0)  -->
<svg version="1.1" id="Layer_1" xmlns="http://www.w3.org/2000/svg" xmlns:xlink="http://www.w3.org/1999/xlink" x="0px" y="0px"
	 viewBox="0 0 64 64" style="enable-background:new 0 0 64 64;" xml:space="preserve">
<path d="M32,6.6c15.5,0,28.2,10.8,28.2,24.3S47.5,55.2,32,55.2c-5.6,0-11-1.5-15.3-3.9L5.1,57.8l3.5-13.3c-3-3.9-4.9-8.6-4.9-13.6
	C3.8,17.4,16.5,6.6,32,6.6z M49.9,30.9c0-2.1-1.7-3.9-3.9-3.9c-2.1,0-3.9,1.7-3.9,3.9s1.7,3.9,3.9,3.9
	C48.3,34.8,49.9,32.9,49.9,30.9z M35.9,30.9c0-2.1-1.7-3.9-3.9-3.9s-3.9,1.7-3.9,3.9s1.7,3.9,3.9,3.9C34.2,34.8,35.9,32.9,35.9,30.9
	z M21.7,30.9c0-2.1-1.7-3.9-3.9-3.9c-2.1,0-3.9,1.7-3.9,3.9s1.7,3.9,3.9,3.9S21.7,32.9,21.7,30.9z"/>
</svg>
