<?xml version="1.0" encoding="utf-8"?>
<!-- Generator: Adobe Illustrator 24.2.0, SVG Export Plug-In . SVG Version: 6.00 Build 0)  -->
<svg version="1.1" id="Layer_1" xmlns="http://www.w3.org/2000/svg" xmlns:xlink="http://www.w3.org/1999/xlink" x="0px" y="0px"
	 viewBox="0 0 64 64" style="enable-background:new 0 0 64 64;" xml:space="preserve">
<style type="text/css">
	.st0{fill-rule:evenodd;clip-rule:evenodd;}
	.st1{fill:#FFFFFF;}
</style>
<g>
	<g>
		<path class="st0" d="M32.4,63c-0.5,0.3-3.2,1.9-3.1,0.4c0.1-2,0.2-4,0.2-6c0.1-1.6,0.7-4-1.1-4.9c-1.7-0.8-3.9-0.8-5.7-1.2
			c-8.3-2.1-15.6-6.9-20.2-14.2c-0.1-0.4-0.6-1.3-0.8-1.6C-2.9,23,2.3,10.8,14.1,4.4c13-7,30.5-5.8,41.7,4.1
			c10.7,9.4,10.4,23.4,2.2,34.2C51.4,51.5,41.9,57.8,32.4,63C31.6,63.5,42,57.8,32.4,63z"/>
	</g>
</g>
<g>
	<path class="st1" d="M23.2,22.9c-0.7,0-1.2,0.2-1.5,0.7c-0.4,0.5-0.6,1.1-0.6,1.9c0,0.9,0.2,1.5,0.5,1.9c0.4,0.4,0.9,0.7,1.6,0.7
		c0.3,0,0.6,0,0.9-0.1c0.3-0.1,0.6-0.1,0.9-0.2v1c-0.5,0.2-1.2,0.3-1.8,0.3c-1,0-1.8-0.3-2.3-0.9c-0.5-0.6-0.8-1.5-0.8-2.6
		c0-0.7,0.1-1.4,0.4-1.9c0.3-0.5,0.6-1,1.1-1.2c0.5-0.3,1.1-0.4,1.8-0.4c0.7,0,1.4,0.1,2,0.4l-0.4,0.9c-0.2-0.1-0.5-0.2-0.7-0.3
		C23.7,23,23.5,22.9,23.2,22.9z"/>
	<path class="st1" d="M31.9,29h-1.1v-3.1h-3.2V29h-1.1v-6.9h1.1v2.8h3.2v-2.8h1.1V29z"/>
	<path class="st1" d="M38,29l-0.7-1.9h-2.6L34,29h-1.2l2.6-7h1.2l2.6,7H38z M37,26.1l-0.6-1.9c0-0.1-0.1-0.3-0.2-0.6
		C36.1,23.3,36,23.1,36,23c-0.1,0.4-0.2,0.8-0.4,1.3L35,26.1H37z"/>
	<path class="st1" d="M42.5,29h-1.1v-6h-2v-1h5.2v1h-2V29z"/>
</g>
</svg>
