<?xml version="1.0" encoding="utf-8"?>
<!-- Generator: Adobe Illustrator 26.0.2, SVG Export Plug-In . SVG Version: 6.00 Build 0)  -->
<svg version="1.1" id="Layer_1" xmlns="http://www.w3.org/2000/svg" xmlns:xlink="http://www.w3.org/1999/xlink" x="0px" y="0px"
	 viewBox="0 0 864 288" style="enable-background:new 0 0 864 288;" xml:space="preserve">
<style type="text/css">
	.st0{fill-rule:evenodd;clip-rule:evenodd;}
	.st1{fill:none;stroke:#808184;stroke-width:3;stroke-miterlimit:10;}
	.st2{fill:none;stroke:#808184;stroke-width:3;stroke-linecap:round;stroke-miterlimit:10;}
</style>
<g>
	<g>
		<path class="st0" d="M692.3,155.5c-1-0.6-0.4,0.9-6,6c-4.5,4.1-14.3,10.6-26.7,9.5c-12.4-1-37.9-6.6-68.9-17.2
			c-31.1-10.6-62.9-15.1-82.1-15.2c-19.2-0.1-42.8,3.9-47,4.6c-4.1,0.8-6.5,0.9-6-1c0.5-1.9,11.7-30.8,14.8-41.1
			c6.3-20.9,5.5-27.7,2.2-30.1c-3.2-2.4-5.8-3.2-14.9,1.9c-9,5.2-40.9,30.4-56.3,38.6c-13.2,7.1-12.2,1.3-9.8-5
			c6.6-17.7,10.6-23.5,13.8-30.8c1.6-3.7,1.4-7.9-2.4-7.1c-3.9,0.9-15.1,9.5-26.7,19.4c-11.5,9.9-24.4,20-27.4,20.7
			c-3.8,0.9-4.5-0.3-3.8-8.9s-1.5-30.6-3.9-37.4c-2.2-6.8-7.1-7.9-11.1-5.9c-5.8,2.8-16.4,26.9-63,55.2c-9,5.5-19,10-17,1.5
			c1-4.4,3.4-12.6,9.2-25.4c7.1-15.6,7.7-15.8,8.5-18.8c1-4-1.2-6.1-4.2-4.4c-3.4,1.9-6,4.6-9.3,8c-3.2,3.4-4.6,5.4-6.6,5.5
			c-2,0.1-2.3-2.6-3.3-8.1c-0.6-3.1-2.2-8.2-9.9-6.7c-7.7,1.5-20.9,7.3-35.5,18.2s-30.7,25.3-43.6,32.8c-13,7.5-30.2,13.3-36,12.4
			s-5.8-3.7-2.4-8.3c3.3-4.6,23.3-19.3,30.9-24.7c7.5-5.4,14.4-10.4,16.9-13.2c7-7.7,0.6-14.7-2.8-16.3c-10-4.6-23.3-0.3-31.6,5.2
			C119,77.5,113.4,90.1,110,97.8c-2.6,5.8-3.2,7.5-5.5,10.8c-2.3,3.3-7.2,8.5-7.2,11.5s3,3.6,4.2,3.7c1.9,0.1,4.2,0,5.8,0
			c1,0,1.9,0.8,1.9,1.8c0.1,3.1,1,9.1,7.5,10.8c8.5,2.2,20.3-0.6,32.6-7.2c8.7-4.6,15.6-9.1,16.9-9.8c4.4-2.5,4.4,0.9,4.6,2.7
			c0.2,1.7-1.6,11.7,3.5,16.6c9.2,8.9,21.2,0.9,26.3-3.2c3.2-2.5,19.7-18.9,22.8-22.1c6.7-7.1,9.5-8.5,11.7-9.5
			c2.2-0.9,5.3-2,5.7,2.7c0.3,4.7-2.9,18.9,3.5,21.2c5.8,2.1,15.8,0.3,30.3-8.3c33.2-19.7,46.5-38.9,49-41c2.5-2.2,5.6-4.6,8.1-1.2
			s4.6,11.1,3.1,17.5c-1.6,7.1-4,14.4-14.4,23.3c-5.8,5.1-18.9,12.6-22.3,15.8c-3.3,3.2-5,7.1-1.7,9c3.2,2,15.3-1.8,21.9-4.9
			c13.6-6.2,30.7-18,38.6-24.6c7.9-6.6,17.8-14.8,20-16.1c4-2.4,6.3-2.4,4.6,1c-1.5,3.1-3.8,9.5-5.2,14.4c-1.4,5-1.9,13.4,9.6,14.9
			c8.5,1.1,17.6-3.1,24.9-7.5s24-16.2,29.6-20.4c5.7-4.2,10.8-6.9,13.6-7.1c2.8-0.2,5.2,2.2,3.7,6.9c-1.5,4.7-11.4,27.6-15,36.3
			c-3,7.2-5.8,12.2-6.7,13.7c-0.2,0.3-0.4,0.6-0.7,0.8c-3.1,2.8-23.9,21.3-29.6,26.9c-6.1,6.1-20.3,20.5-26.9,31.2
			c-6.6,10.8-11.4,21.3-10.8,31.1c0.5,7.9,4,14.4,11.4,15.1c7.4,0.7,16.2-4.4,24.3-14.8c8.1-10.5,25.7-35.4,37.2-61.6
			c7-16,9.5-23.3,12-25.8c2.4-2.4,30.1-15.5,79-5.2c22.1,4.6,39.1,8.5,68.2,18.8c29.1,10.3,54,14,65.1,12.6
			c15.8-2.1,21.8-9,24.8-14.6C692.5,160.2,693.3,156.1,692.3,155.5z M120.4,91.6c2.2-3.9,6.3-8,11.4-11.8c6.5-4.8,13.8-6.3,16.7-6.7
			s5.8,0.3,5.8,1.6c0,2.2-1.7,4.8-11.6,12.4c-9.8,7.6-22.2,15.5-24.1,11.9C117.8,97.2,118.2,95.4,120.4,91.6z M238.3,87.1
			c-2.8,4.6-11.6,11.8-14.3,14.4c-2.6,2.6-10.2,8.9-17.9,14.6s-13.9,8.9-19,8.4c-5.1-0.4-4-4.6-2.3-9.5c1.5-4.9,12.8-19.4,21.3-26
			c8.5-6.6,15.5-9.1,21.5-10.2C241.2,76.4,241.4,82,238.3,87.1z M428.5,176.5c-2.2,4.6-14.5,25.1-21.6,36.8
			c-8.6,14-16.9,24.7-22.2,27.2c-5,2.3-11.2-2.5,6.5-31.5c12.1-19.8,29.7-37.2,33.5-41C441.2,151.9,432.2,169.2,428.5,176.5z"/>
	</g>
</g>
<g>
	<path d="M492.8,75h7.9l5.2,29.8h0.2l5.7-29.8h8.6l5.7,29.8h0.2l5.2-29.8h7.6l-8.8,37.8h-8.5l-5.9-29.4h-0.1l-5.4,29.4h-8.9
		L492.8,75z"/>
	<path d="M542.3,62.1h7.6v7.6h-7.6V62.1z M542.3,75h7.6v37.8h-7.6V75z"/>
	<path d="M552.4,75h5.2V64.3h7.6V75h6.2v5.7h-6.2v22.6c0,2.9,0.9,4,3.4,4c1.1,0,2.1-0.1,2.8-0.2v5.7c-1.6,0.4-3.7,0.6-6.1,0.6
		c-5.2,0-7.7-1.4-7.7-9.1V80.6h-5.2V75z"/>
	<path d="M573.7,62.7h7.6v16.5l0.2,0.2c2.2-3.3,5.4-5.2,9.3-5.2c5.8,0,9.5,2.6,9.5,10.3v28.5h-7.6v-26c0-4.9-1.5-6.8-5.2-6.8
		c-3.1,0-6,2.5-6,7.4v25.4h-7.6L573.7,62.7L573.7,62.7z"/>
	<path d="M627.5,95v2.2c0,5.1,0.6,11.5,6.4,11.5c5.4,0,6-6.2,6-8.4h7.2c0,8.3-5.1,13.7-13.3,13.7c-6.2,0-13.8-1.8-13.8-19.4
		c0-9.9,2.2-20.5,14-20.5c10.6,0,13.4,6.4,13.4,16.9v4L627.5,95L627.5,95z M639.6,89.8v-2.1c0-4.8-1.5-8.4-5.8-8.4
		c-4.9,0-6.4,4.8-6.4,9.7v0.8H639.6z"/>
	<path d="M677.1,107.1H677c-2.2,4.6-5.1,6.8-11,6.8c-11,0-15-8.2-15-26.2s5.1-26.2,16.7-26.2c12.6,0,14.7,9.9,14.7,14.5v0.9h-7.5
		v-1.2c0-3.7-1.5-8.2-7.1-8.2c-5.7,0-8.8,3.8-8.8,19.9c0,16.2,2.7,20.3,8.1,20.3c6.1,0.1,8.3-4.4,8.3-15.4h-8.3v-6h16.1v26.4h-6
		L677.1,107.1L677.1,107.1z"/>
	<path d="M712.7,105.1c0,1.4,0.9,2.7,2,2.7c0.5,0,0.9-0.1,1.3-0.2v4.9c-0.9,0.4-2.2,0.9-3.7,0.9c-3.4,0-6.2-1.4-6.5-5h-0.2
		c-2.1,3.7-5,5.6-9.5,5.6c-6,0-9.9-3.4-9.9-10.7c0-8.4,3.7-10.2,8.8-11.9l5.9-1.6c2.8-0.8,4.5-1.5,4.5-4.9c0-3.4-1.2-5.7-5.2-5.7
		c-5.1,0-5.8,3.6-5.8,7.2h-7.2c0-8,3.3-12.5,13.3-12.5c6.7,0,12,2.6,12,9.3L712.7,105.1L712.7,105.1z M705.5,92.9
		c-2,1.5-6.2,2.5-8.4,3.5c-2.2,1-3.1,3.3-3.1,6.1c0,3.2,1.5,5.7,4.7,5.7c4.6,0,6.8-3.4,6.8-9L705.5,92.9L705.5,92.9z"/>
	<path d="M719,62.1h7.6v7.6H719V62.1z M719,75h7.6v37.8H719V75z"/>
	<path d="M732.5,75h7.2v4.5h0.2c1.9-3.4,5.5-5.4,9.7-5.4c5.8,0,9.5,2.6,9.5,10.3v28.5h-7.6v-26c0-4.9-1.5-6.8-5.2-6.8
		c-3.1,0-6,2.5-6,7.4v25.4h-7.7V75z"/>
</g>
<path class="st1" d="M731.3,153.2c0,0-11.4-12.6-19.6-10.7s-9.6,6.4-7.5,12.3c2.2,5.9,28.2,30.5,28.2,30.5l2.4,2.3
	c0.5,0.4,1.3,0.3,1.5-0.3c2.6-5.2,12.8-25.7,14.6-31.8c2.1-7-0.2-17.3-5.5-17.4c-5.2-0.1-9.8,5.7-11.3,9.1
	C733,150.7,731.3,153.2,731.3,153.2z"/>
<path class="st1" d="M704,154.1c0,0-8.2-13.8,3.9-21.8c6.9-4.6,22.6,3.1,22.6,3.1s4-8.7,10.5-12c6.5-3.3,10.4-3.5,14.9-0.2
	c4,2.9,2.7,10,0.7,16.5s-5.6,15.7-5.6,15.7"/>
<line class="st2" x1="714.1" y1="131.5" x2="714.2" y2="138.4"/>
<line class="st2" x1="708.5" y1="132.3" x2="708.5" y2="139.5"/>
<line class="st2" x1="720.9" y1="132.8" x2="720.8" y2="139.9"/>
<line class="st2" x1="727" y1="134.8" x2="726.8" y2="143.5"/>
<line class="st1" x1="730.6" y1="134" x2="732.2" y2="151.3"/>
<line class="st1" x1="739.1" y1="124.6" x2="740.2" y2="140.2"/>
<line class="st1" x1="746.5" y1="122.1" x2="746.2" y2="137.5"/>
<line class="st1" x1="754.5" y1="122.6" x2="750.2" y2="141.7"/>
<path class="st1" d="M709.1,140.7"/>
<path class="st1" d="M708.9,132.1"/>
</svg>
